<svg width="16" height="15" viewBox="0 0 16 15" fill="none" xmlns="http://www.w3.org/2000/svg">
<path d="M8.66797 3.83268C8.66797 3.46449 8.36949 3.16602 8.0013 3.16602C7.63311 3.16602 7.33464 3.46449 7.33464 3.83268V7.49935C7.33464 7.67616 7.40487 7.84573 7.5299 7.97075L9.5299 9.97075C9.79025 10.2311 10.2124 10.2311 10.4727 9.97075C10.7331 9.7104 10.7331 9.28829 10.4727 9.02794L8.66797 7.22321V3.83268Z" fill="#787A80"/>
<path fill-rule="evenodd" clip-rule="evenodd" d="M8.0013 0.166016C3.95121 0.166016 0.667969 3.44926 0.667969 7.49935C0.667969 11.5494 3.95121 14.8327 8.0013 14.8327C12.0514 14.8327 15.3346 11.5494 15.3346 7.49935C15.3346 3.44926 12.0514 0.166016 8.0013 0.166016ZM2.0013 7.49935C2.0013 4.18564 4.68759 1.49935 8.0013 1.49935C11.315 1.49935 14.0013 4.18564 14.0013 7.49935C14.0013 10.8131 11.315 13.4993 8.0013 13.4993C4.68759 13.4993 2.0013 10.8131 2.0013 7.49935Z" fill="#787A80"/>
</svg>
