<svg viewBox="0 0 48 48" xmlns="http://www.w3.org/2000/svg" xmlns:xlink="http://www.w3.org/1999/xlink"><style>:root&gt;svg{display:none}:root&gt;svg:target{display:block}</style><svg viewBox="0 0 18 12" id="icon-arrow" xmlns="http://www.w3.org/2000/svg"><path fill-rule="evenodd" clip-rule="evenodd" d="M11.793.793a1 1 0 011.414 0l4.5 4.5a1 1 0 010 1.414l-4.5 4.5a1 1 0 01-1.414-1.414L14.586 7H1a1 1 0 010-2h13.586l-2.793-2.793a1 1 0 010-1.414z"/></svg><svg viewBox="0 0 20 20" id="icon-bleach" xmlns="http://www.w3.org/2000/svg"><path d="M19.83 17.581l-1.899-1.404-3.9-7.806 5.8-4.286a.416.416 0 10-.495-.67l-5.682 4.2-3.281-6.57c-.142-.283-.604-.283-.746 0l-3.281 6.57-5.682-4.2a.416.416 0 10-.495.67l5.8 4.286-3.9 7.806-1.9 1.404a.416.416 0 10.495.67l.585-.432-.372.743a.418.418 0 00.373.604h17.5a.419.419 0 00.372-.604l-.371-.743.585.432a.418.418 0 00.583-.087.416.416 0 00-.088-.583zm-3.379-2.497l-5.75-4.251 2.647-1.957 3.103 6.208zM10 2.18l2.97 5.94L10 10.314 7.03 8.12 10 2.181zM6.652 8.876L9.3 10.833l-5.751 4.25 3.103-6.207zm-4.728 9.457l.803-1.607L10 11.351l7.273 5.375.803 1.607H1.924z"/></svg><svg viewBox="0 0 21 20" id="icon-cart" xmlns="http://www.w3.org/2000/svg"><path fill-rule="evenodd" clip-rule="evenodd" d="M2.88 2.758a6.884 6.884 0 00-.447-.008H.917a.917.917 0 010-1.833h1.542c.197 0 .392 0 .559.013.185.014.401.046.625.146.314.14.582.366.774.652.137.203.206.41.252.59.04.163.074.355.108.548l.004.026L5 4.148l11.93.353c.466.014.87.026 1.203.062.352.04.7.112 1.035.29.507.27.916.692 1.171 1.207.169.34.23.69.26 1.042.026.334.026.738.026 1.206v.068c0 .44 0 .82-.025 1.136-.026.336-.083.669-.237.995A2.75 2.75 0 0119.28 11.7c-.31.184-.636.273-.967.332-.312.054-.691.091-1.129.134l-8.923.863c-.448.043-.837.081-1.16.087-.344.006-.689-.02-1.034-.148a2.75 2.75 0 01-1.289-.982c-.214-.3-.331-.624-.417-.957-.08-.314-.147-.699-.224-1.142l-1.162-6.68a6.894 6.894 0 00-.086-.449h-.01zM5.32 5.99l.617 3.548c.085.487.14.8.2 1.035.058.224.103.305.132.346.107.15.257.264.43.327.047.018.137.04.369.036a14.93 14.93 0 001.05-.082l8.856-.857c.48-.046.788-.077 1.022-.118.222-.04.305-.077.348-.102a.918.918 0 00.36-.398c.021-.044.051-.13.069-.356.018-.236.019-.545.019-1.028 0-.512-.001-.841-.021-1.093-.02-.24-.052-.33-.075-.376a.916.916 0 00-.39-.402c-.044-.023-.134-.059-.373-.085a15.34 15.34 0 00-1.093-.054l-11.52-.34zm2.472 10.052a.917.917 0 100 1.833.917.917 0 000-1.833zm-2.75.917a2.75 2.75 0 115.5 0 2.75 2.75 0 01-5.5 0zm11.458-.917a.917.917 0 100 1.833.917.917 0 000-1.833zm-2.75.917a2.75 2.75 0 115.5 0 2.75 2.75 0 01-5.5 0z"/></svg><svg viewBox="0 0 10 8" id="icon-check" xmlns="http://www.w3.org/2000/svg"><path fill-rule="evenodd" clip-rule="evenodd" d="M9.828.195a.73.73 0 010 .943L3.945 7.805a.54.54 0 01-.832 0L.173 4.47a.731.731 0 010-.942.54.54 0 01.831 0L3.53 6.39 8.996.195a.54.54 0 01.832 0z"/></svg><svg viewBox="0 0 22 20" id="icon-checkout" xmlns="http://www.w3.org/2000/svg"><path fill-rule="evenodd" clip-rule="evenodd" d="M3.25 2.75a1 1 0 00-1 1v1.5h17.5v-1.5a1 1 0 00-1-1H3.25zm16.5 4.5H2.25v2.5h17.5v-2.5zm0 4.5H2.25v4.5a1 1 0 001 1h15.5a1 1 0 001-1v-4.5zm-19.5-8a3 3 0 013-3h15.5a3 3 0 013 3v12.5a3 3 0 01-3 3H3.25a3 3 0 01-3-3V3.75z"/></svg><svg viewBox="0 0 16 16" id="icon-chevron" xmlns="http://www.w3.org/2000/svg"><path fill-rule="evenodd" clip-rule="evenodd" d="M5.527 2.861c.26-.26.683-.26.943 0l4.667 4.667c.26.26.26.682 0 .943L6.47 13.137a.667.667 0 11-.943-.942l4.196-4.196-4.196-4.195a.667.667 0 010-.943z"/></svg><svg viewBox="0 0 20 20" id="icon-clock" xmlns="http://www.w3.org/2000/svg"><path d="M10.832 5.417a.833.833 0 10-1.667 0v4.584c0 .22.088.433.244.589l2.5 2.5a.834.834 0 001.179-1.179l-2.256-2.256V5.417z"/><path fill-rule="evenodd" clip-rule="evenodd" d="M9.999.834a9.167 9.167 0 100 18.333 9.167 9.167 0 000-18.333zm-7.5 9.167a7.5 7.5 0 1115 0 7.5 7.5 0 01-15 0z"/></svg><svg viewBox="0 0 16 14" id="icon-comments" xmlns="http://www.w3.org/2000/svg"><path fill-rule="evenodd" clip-rule="evenodd" d="M14.615 6.546a5.166 5.166 0 01-.653 1.858c.025.142.038.286.038.43 0 .502-.146.982-.415 1.419-.135.218-.17.473-.183.642a4.25 4.25 0 00.004.607c.016.228.044.468.076.693a13.78 13.78 0 00-.812-.212 5.819 5.819 0 00-.66-.115c-.181-.019-.443-.034-.676.042a5.425 5.425 0 01-1.668.258 5.365 5.365 0 01-1.92-.343 8.824 8.824 0 01-2.712-.291C6.085 12.748 7.818 13.5 9.666 13.5a6.76 6.76 0 002.054-.315h.006c.016 0 .062 0 .147.008.134.014.306.044.504.09.395.088.839.22 1.184.33a1.024 1.024 0 001.313-1.152c-.056-.32-.115-.711-.138-1.05a2.96 2.96 0 01-.004-.413.783.783 0 01.01-.083 4.009 4.009 0 00.591-2.082c0-.849-.264-1.624-.718-2.288z"/><path fill-rule="evenodd" clip-rule="evenodd" d="M3.731 3.3c-.899.687-1.398 1.589-1.398 2.534 0 .471.123.925.353 1.347.088.161.113.327.121.44.01.122.005.248-.005.365a5.847 5.847 0 01-.134.766 14.5 14.5 0 01-.255.943c.352-.128.737-.259 1.102-.365.295-.086.593-.161.858-.203.228-.036.56-.072.845.027a6.48 6.48 0 002.115.347c1.432 0 2.703-.445 3.602-1.132.899-.688 1.398-1.59 1.398-2.535 0-.945-.5-1.847-1.398-2.535-.9-.687-2.17-1.132-3.602-1.132-1.431 0-2.703.445-3.602 1.132zm-.81-1.06C4.073 1.36 5.635.834 7.333.834s3.26.526 4.412 1.406c1.152.881 1.921 2.146 1.921 3.594s-.769 2.713-1.921 3.594c-1.152.88-2.714 1.406-4.412 1.406-.895 0-1.75-.146-2.527-.412 0 .003-.064-.004-.225.022-.186.03-.423.087-.693.165a20.59 20.59 0 00-1.599.558c-.796.31-1.606-.455-1.338-1.269.142-.432.31-.977.419-1.448.055-.237.09-.436.104-.584a1.16 1.16 0 00.005-.114A4.117 4.117 0 011 5.834c0-1.448.77-2.713 1.922-3.594z"/></svg><svg viewBox="0 0 48 48" id="icon-credit-card" xmlns="http://www.w3.org/2000/svg"><path d="M24 33.375a.938.938 0 100 1.876.938.938 0 000-1.876z"/><path d="M45.188 18.375h-3.376V4.312A2.816 2.816 0 0039 1.5H2.812A2.816 2.816 0 000 4.313v22.5a2.816 2.816 0 002.813 2.812h3.374v14.063A2.816 2.816 0 009 46.5h36.188A2.816 2.816 0 0048 43.687v-22.5a2.816 2.816 0 00-2.813-2.812zM1.874 9h38.063v3.75H1.874V9zm.938-5.625H39c.517 0 .938.42.938.938v2.812H1.874V4.312c0-.517.42-.937.938-.937zm0 24.375a.938.938 0 01-.938-.938V14.626h38.063v3.75H9a2.816 2.816 0 00-2.813 2.813v6.562H2.813zm43.312 15.938c0 .517-.42.937-.938.937H9a.938.938 0 01-.938-.938v-22.5c0-.517.42-.937.938-.937h36.188c.517 0 .937.42.937.938v22.5z"/><path d="M37.125 24a4.69 4.69 0 00-2.813.94A4.685 4.685 0 0031.5 24a4.693 4.693 0 00-4.688 4.688 4.693 4.693 0 004.688 4.687 4.685 4.685 0 002.812-.94 4.69 4.69 0 002.813.94 4.693 4.693 0 004.688-4.688A4.693 4.693 0 0037.124 24zm-8.438 4.688a2.812 2.812 0 014.92-1.86h.002a2.804 2.804 0 010 3.72 2.812 2.812 0 01-4.922-1.86zm8.438 2.812a2.816 2.816 0 01-1.563-.475 4.68 4.68 0 000-4.675 2.816 2.816 0 011.563-.475 2.816 2.816 0 012.813 2.813 2.816 2.816 0 01-2.813 2.812zM16.5 39h-3.75a.937.937 0 100 1.875h3.75a.937.937 0 100-1.875zm7.5 0h-3.75a.937.937 0 100 1.875H24A.937.937 0 1024 39zm7.5 0h-3.75a.937.937 0 100 1.875h3.75a.937.937 0 100-1.875zm7.5 0h-3.75a.937.937 0 100 1.875H39A.937.937 0 1039 39zm-26.25-3.75h7.5a.937.937 0 100-1.875h-7.5a.937.937 0 100 1.875z"/></svg><svg viewBox="0 0 16 16" id="icon-delete" xmlns="http://www.w3.org/2000/svg"><path fill-rule="evenodd" clip-rule="evenodd" d="M4.832 2.5c0-.92.746-1.667 1.667-1.667h3c.92 0 1.666.746 1.666 1.667v.333H14.5a.667.667 0 110 1.333h-.834V12.5A2.667 2.667 0 0111 15.166H5A2.667 2.667 0 012.332 12.5V4.166h-.833a.667.667 0 010-1.333h3.333V2.5zm1.333.333h3.667V2.5a.333.333 0 00-.333-.334h-3a.333.333 0 00-.334.334v.333zm-2.5 1.333V12.5c0 .736.597 1.333 1.334 1.333h6c.736 0 1.333-.597 1.333-1.333V4.166H3.665zM8 5.333c.368 0 .666.298.666.667v6a.667.667 0 01-1.333 0V6c0-.369.299-.667.667-.667z"/></svg><svg viewBox="0 0 20 20" id="icon-drying" xmlns="http://www.w3.org/2000/svg"><path d="M19.167 18.578V1.422l.711-.712a.417.417 0 10-.59-.589l-.71.711H1.422L.71.123A.416.416 0 10.122.71l.711.712v17.155l-.71.71a.416.416 0 10.588.59l.712-.711h17.154l.712.71a.415.415 0 00.589 0 .416.416 0 000-.588l-.711-.712zM10 1.666h7.744L15.581 3.83A8.29 8.29 0 0010 1.667 8.29 8.29 0 004.419 3.83L2.256 1.667H10zM9.41 10l-4.99 4.992A7.46 7.46 0 012.5 10a7.46 7.46 0 011.919-4.992L9.41 10zM5.009 4.419A7.46 7.46 0 0110 2.5a7.46 7.46 0 014.992 1.919L10 9.41 5.008 4.419zM10 10.589l4.992 4.992A7.46 7.46 0 0110 17.5a7.46 7.46 0 01-4.992-1.919L10 10.59zm.59-.589l4.991-4.992A7.46 7.46 0 0117.5 10a7.46 7.46 0 01-1.919 4.992L10.59 10zm-8.923 0V2.256L3.83 4.419A8.29 8.29 0 001.667 10a8.29 8.29 0 002.163 5.581l-2.163 2.163V10zM10 18.333H2.256l2.163-2.163A8.29 8.29 0 0010 18.333a8.29 8.29 0 005.581-2.163l2.163 2.163H10zM18.333 10v7.744l-2.163-2.163A8.29 8.29 0 0018.333 10a8.29 8.29 0 00-2.163-5.581l2.163-2.163V10z"/></svg><svg viewBox="0 0 15 13" id="icon-eye" xmlns="http://www.w3.org/2000/svg"><path d="M1.76 3.679c1.803-1.504 3.878-2.346 6.073-2.346 2.194 0 4.27.842 6.073 2.346a.667.667 0 00.854-1.024C12.755.982 10.386 0 7.833 0S2.91.982.906 2.655a.667.667 0 10.854 1.024z"/><path fill-rule="evenodd" clip-rule="evenodd" d="M2.733 4.46c1.2-1.013 2.91-1.96 4.85-1.96 1.94 0 3.65.947 4.85 1.96.604.51 1.1 1.054 1.45 1.54.174.242.32.48.425.7.096.203.191.459.191.717 0 .257-.095.513-.191.716-.105.22-.25.458-.426.7a8.856 8.856 0 01-1.45 1.541c-1.199 1.012-2.909 1.96-4.85 1.96-1.94 0-3.65-.948-4.849-1.96a8.852 8.852 0 01-1.45-1.54 4.63 4.63 0 01-.425-.701C.76 7.93.666 7.674.666 7.417c0-.258.095-.514.192-.716.105-.221.25-.459.425-.701.35-.486.846-1.03 1.45-1.54zm-.729 2.957a.995.995 0 00.058.143c.061.13.161.298.303.494.282.392.702.857 1.228 1.301C4.656 10.253 6.071 11 7.583 11c1.511 0 2.926-.747 3.989-1.645.527-.444.946-.91 1.229-1.3.141-.197.241-.365.303-.495.035-.074.05-.12.057-.143a1.015 1.015 0 00-.057-.144 3.322 3.322 0 00-.303-.494 7.524 7.524 0 00-1.229-1.3 8.276 8.276 0 00-.715-.542 3.417 3.417 0 11-6.548 0 8.23 8.23 0 00-.716.541 7.57 7.57 0 00-1.228 1.301 3.323 3.323 0 00-.303.494 1.01 1.01 0 00-.058.144zm3.495-1.5a2.083 2.083 0 114.167 0 2.083 2.083 0 01-4.167 0z"/></svg><svg viewBox="0 0 8 16" id="icon-facebook" xmlns="http://www.w3.org/2000/svg"><path d="M7.708.67L5.856.665c-2.08 0-3.424 1.417-3.424 3.61V5.94H.57a.295.295 0 00-.29.299V8.65c0 .165.13.3.29.3h1.862v6.084c0 .165.13.299.291.299h2.429c.16 0 .291-.134.291-.3V8.95H7.62c.16 0 .291-.134.291-.299V6.24c0-.08-.03-.155-.084-.212a.287.287 0 00-.206-.087H5.443V4.529c0-.678.157-1.022 1.017-1.022h1.248c.16 0 .29-.135.29-.3V.968a.295.295 0 00-.29-.299z"/></svg><svg viewBox="0 0 15 16" id="icon-filter" xmlns="http://www.w3.org/2000/svg"><path fill-rule="evenodd" clip-rule="evenodd" d="M3.833 6.333c.368 0 .666.298.666.667v7.5a.667.667 0 01-1.333 0V7c0-.369.298-.667.667-.667zm0-5.5c.368 0 .666.298.666.667v2a.667.667 0 01-1.333 0v-2c0-.369.298-.667.667-.667z"/><path fill-rule="evenodd" clip-rule="evenodd" d="M.166 4.833a2 2 0 012-2h3.333a2 2 0 012 2v.833a2 2 0 01-2 2H2.166a2 2 0 01-2-2v-.833zm2-.667a.667.667 0 00-.667.667v.833c0 .369.299.667.667.667h3.333a.667.667 0 00.667-.667v-.833a.667.667 0 00-.667-.667H2.166zm9 7.667c.368 0 .667.299.667.667v2a.667.667 0 01-1.334 0v-2c0-.368.299-.667.667-.667zm0-11c.368 0 .667.298.667.667V9a.667.667 0 01-1.334 0V1.5c0-.369.299-.667.667-.667z"/><path fill-rule="evenodd" clip-rule="evenodd" d="M7.5 10.333a2 2 0 012-2h3.333a2 2 0 012 2v.833a2 2 0 01-2 2H9.499a2 2 0 01-2-2v-.833zm2-.667a.667.667 0 00-.667.667v.833c0 .368.298.667.666.667h3.334a.667.667 0 00.666-.667v-.833a.667.667 0 00-.666-.667H9.499z"/></svg><svg viewBox="0 0 16 15" id="icon-finger" xmlns="http://www.w3.org/2000/svg"><path fill-rule="evenodd" clip-rule="evenodd" d="M9.453 1.666a.263.263 0 00-.226.13l-.004.007L6.165 6.76v6.573h5.724c.123 0 .23-.085.256-.205l.002-.01 1.7-6.64a.262.262 0 00-.257-.312h-2.591c-.434 0-.874-.145-1.194-.457a1.406 1.406 0 01-.392-1.304l.48-2.426a.262.262 0 00-.257-.313h-.183zM4.832 13.333V7.238H2.47a.262.262 0 00-.262.26l-.043 5.571a.262.262 0 00.262.264h2.405zm.295-7.429L8.08 1.116A1.595 1.595 0 019.453.333h.183c1.005 0 1.76.918 1.565 1.904l-.48 2.426a.14.14 0 00-.001.067.058.058 0 00.017.025c.028.027.11.078.262.078h2.591c1.02 0 1.779.945 1.557 1.941l-.002.01-1.701 6.645a1.595 1.595 0 01-1.555 1.237H2.427A1.595 1.595 0 01.832 13.06l.043-5.571A1.595 1.595 0 012.47 5.904h2.657z"/></svg><svg viewBox="0 0 14 14" id="icon-google" xmlns="http://www.w3.org/2000/svg"><path d="M7.14 6.003h6.584c.072.405.109.793.109 1.162 0 1.314-.276 2.487-.827 3.519a5.966 5.966 0 01-2.356 2.42c-1.02.58-2.19.872-3.51.872-.95 0-1.855-.184-2.715-.55A6.972 6.972 0 012.2 11.941 6.973 6.973 0 01.715 9.717 6.856 6.856 0 01.166 7c0-.95.183-1.855.55-2.715A6.974 6.974 0 012.2 2.061 6.974 6.974 0 014.425.577 6.856 6.856 0 017.14.027c1.816 0 3.375.609 4.677 1.826L9.919 3.678c-.745-.72-1.671-1.08-2.779-1.08-.78 0-1.503.196-2.166.59A4.35 4.35 0 003.4 4.79a4.365 4.365 0 00-.581 2.211c0 .8.193 1.537.58 2.212a4.35 4.35 0 001.576 1.602c.663.394 1.385.59 2.166.59a4.63 4.63 0 001.453-.217c.442-.146.805-.327 1.09-.545.284-.218.533-.466.744-.745a3.47 3.47 0 00.468-.79c.1-.248.168-.484.204-.708H7.14V6.003z"/></svg><svg viewBox="0 0 20 18" id="icon-hand" xmlns="http://www.w3.org/2000/svg"><path d="M19.665 3.593c-.228-.051-.445.107-.49.347l-.54 2.863c-.26-.123-.457-.333-.688-.585-.313-.34-.69-.744-1.3-.9a3.846 3.846 0 00-1.136-2.554l-1.39-1.373a3.962 3.962 0 00-2.97-1.136L6.168.489a.417.417 0 00-.389.334 1.871 1.871 0 00.31 1.465 1.93 1.93 0 001.301.792l1.044.147a.45.45 0 01.375.31.437.437 0 01-.112.46L6.09 6.574a4.672 4.672 0 01-.36-.357c-.396-.43-.888-.968-1.837-.968-.948 0-1.44.537-1.836.968-.231.252-.43.463-.692.586L.825 3.94C.78 3.7.563 3.543.335 3.593a.443.443 0 00-.327.52l2.3 12.213c.154.825.841 1.424 1.633 1.424H16.06c.791 0 1.479-.599 1.634-1.424l2.299-12.212a.442.442 0 00-.327-.521zm-10.382.996a1.287 1.287 0 00-.733-2.187l-1.043-.147a1.078 1.078 0 01-.927-.95l4.61-.218a3.14 3.14 0 012.346.897l1.39 1.373a3.02 3.02 0 01.883 1.915c-.752.1-1.18.564-1.53.946-.357.39-.64.699-1.22.699s-.862-.308-1.219-.699c-.395-.43-.887-.968-1.834-.968-.947 0-1.439.537-1.834.968-.357.39-.64.699-1.22.699-.008 0-.013-.003-.02-.003l2.351-2.325zm1.872 4.952a.416.416 0 00-.59-.003l-3.113 3.078a.47.47 0 01-.66 0 .446.446 0 01-.006-.632l3.12-3.085a.416.416 0 10-.586-.593l-3.114 3.08-.01.01-.612.605a.471.471 0 01-.66 0 .446.446 0 010-.64l3.114-3.078a.417.417 0 00.003-.59.408.408 0 00-.251-.115c.438-.193.739-.516.996-.796.358-.39.64-.699 1.22-.699s.862.308 1.22.699c.395.43.887.968 1.834.968.946 0 1.438-.537 1.833-.968.279-.304.516-.553.88-.65a3.034 3.034 0 01-.848 1.559l-4.982 4.925a.471.471 0 01-.66 0 .445.445 0 010-.639l1.869-1.847a.416.416 0 00.003-.59zM6.218 7.619a2.12 2.12 0 001.238.069l-.004.003-2.491 2.462a.47.47 0 01-.66 0 .445.445 0 010-.639L6.218 7.62zm10.658 8.534c-.078.412-.421.764-.817.764H3.94c-.396 0-.739-.352-.817-.764L1.52 7.629c.515-.177.854-.524 1.15-.847.358-.39.64-.699 1.223-.699.581 0 .864.309 1.223.699.114.124.238.256.377.383L3.715 8.922a1.275 1.275 0 00-.382.912c0 .345.136.669.382.912.125.123.269.216.422.278-.118.197-.18.422-.18.657-.001.345.135.669.381.912a1.307 1.307 0 001.583.193 1.299 1.299 0 001.201.798c.332 0 .663-.125.916-.375l.39-.386a1.307 1.307 0 002.101.386l4.982-4.926a3.852 3.852 0 001.09-2.096c.282.12.494.335.732.595.295.322.633.67 1.148.847l-1.605 8.524z"/></svg><svg viewBox="0 0 20 18" id="icon-heart" xmlns="http://www.w3.org/2000/svg"><path fill-rule="evenodd" clip-rule="evenodd" d="M10 15.59c-3.833-2.184-5.971-4.353-7.005-6.235-1.058-1.927-.965-3.55-.378-4.702 1.206-2.367 4.638-3.124 6.728-.48L10 5l.654-.827c2.09-2.644 5.522-1.887 6.729.48.587 1.152.68 2.775-.379 4.701-1.034 1.883-3.171 4.053-7.004 6.235zm0-13.168C7.057-.373 2.72.782 1.131 3.897c-.871 1.709-.883 3.918.402 6.26 1.275 2.32 3.815 4.77 8.062 7.117l.403.223.403-.223c4.247-2.347 6.788-4.797 8.062-7.117 1.286-2.342 1.274-4.551.403-6.26C17.279.782 12.94-.373 9.999 2.422z"/></svg><svg viewBox="0 0 14 15" id="icon-home" xmlns="http://www.w3.org/2000/svg"><path fill-rule="evenodd" clip-rule="evenodd" d="M7.523 2.28a2 2 0 00-1.045 0c-.356.097-.702.35-1.687 1.117L3.057 4.745c-.634.493-.847.666-.998.87a2 2 0 00-.318.65c-.068.244-.074.518-.074 1.321V12c0 .513.008.622.03.693.064.213.23.38.444.445.07.021.18.028.693.028h.533A.667.667 0 004 12.531V10.5a3 3 0 016 0v1.916c0 .086.001.104.002.116.016.343.29.617.633.633l.116.001h.416c.514 0 .623-.007.694-.028a.667.667 0 00.444-.445c.022-.07.03-.18.03-.693V7.586c0-.803-.007-1.077-.075-1.321a2.002 2.002 0 00-.318-.65c-.15-.204-.363-.377-.998-.87L9.211 3.397C8.225 2.63 7.88 2.377 7.523 2.28zM6.13.995a3.333 3.333 0 011.742 0c.649.175 1.218.619 2.044 1.262l.114.088 1.733 1.348.07.055c.537.417.908.705 1.181 1.075.241.326.42.693.53 1.083.124.443.124.912.123 1.592v4.587c.001.38.001.71-.086.996a2 2 0 01-1.333 1.334c-.287.087-.616.086-.997.086h-.514c-.064 0-.118 0-.168-.003a2 2 0 01-1.902-2.067V10.5a1.667 1.667 0 00-3.333 0v1.93c0 .064 0 .118-.002.168a2 2 0 01-1.9 1.9c-.05.002-.104.002-.167.002H2.75c-.38 0-.71 0-.996-.086A2 2 0 01.42 13.08c-.087-.287-.086-.616-.086-.996V7.496c0-.679 0-1.148.123-1.59.11-.391.29-.758.53-1.084.274-.37.645-.658 1.18-1.075l.072-.055 1.733-1.348.113-.088C4.911 1.613 5.481 1.169 6.13.994z"/></svg><svg viewBox="0 0 14 14" id="icon-instagram" xmlns="http://www.w3.org/2000/svg"><path d="M13.654 4.254c-.031-.708-.146-1.195-.31-1.618a3.258 3.258 0 00-.77-1.182 3.281 3.281 0 00-1.18-.768c-.425-.164-.91-.28-1.618-.31-.714-.034-.94-.042-2.75-.042s-2.037.008-2.749.04C3.57.403 3.082.518 2.66.682c-.448.17-.85.43-1.183.771a3.283 3.283 0 00-.768 1.18C.545 3.059.43 3.543.4 4.25.366 4.964.358 5.19.358 7c0 1.811.008 2.038.04 2.749.03.708.145 1.195.31 1.617.169.448.432.85.77 1.183.334.338.738.602 1.18.768.425.164.91.279 1.618.31.71.031.938.04 2.748.04 1.81 0 2.037-.008 2.748-.04.708-.031 1.195-.146 1.617-.31a3.41 3.41 0 001.951-1.95c.164-.425.279-.91.31-1.618.031-.711.04-.938.04-2.748 0-1.81-.004-2.037-.035-2.748zm-1.2 5.444c-.03.651-.139 1.003-.23 1.237a2.211 2.211 0 01-1.266 1.266c-.234.091-.588.2-1.237.23-.703.03-.914.038-2.693.038s-1.993-.008-2.693-.039c-.651-.028-1.003-.138-1.237-.23a2.051 2.051 0 01-.766-.497 2.073 2.073 0 01-.498-.765c-.09-.235-.2-.589-.229-1.238-.031-.703-.039-.914-.039-2.693s.008-1.992.04-2.693c.028-.651.137-1.003.228-1.237.107-.29.276-.552.5-.766a2.07 2.07 0 01.766-.498c.235-.09.589-.2 1.237-.229.704-.031.915-.039 2.694-.039 1.781 0 1.992.008 2.693.04.651.028 1.003.137 1.237.228.29.107.552.276.766.498.221.216.39.477.497.766.091.234.2.588.23 1.237.03.703.039.914.039 2.693 0 1.78-.008 1.988-.04 2.69z"/><path d="M7.025 3.577a3.426 3.426 0 10.002 6.852 3.426 3.426 0 00-.002-6.852zm0 5.647a2.222 2.222 0 11.001-4.445 2.222 2.222 0 010 4.445zm4.361-5.783a.8.8 0 11-1.6 0 .8.8 0 011.6 0z"/></svg><svg viewBox="0 0 12 20" id="icon-iphone" xmlns="http://www.w3.org/2000/svg"><path fill-rule="evenodd" clip-rule="evenodd" d="M3.085 2.434c-.69 0-1.25.56-1.25 1.25v12.63c0 .69.56 1.25 1.25 1.25h5.833c.69 0 1.25-.56 1.25-1.25V3.684c0-.69-.56-1.25-1.25-1.25h-.07l-.202.487a.833.833 0 01-.77.513h-3.75a.833.833 0 01-.769-.513l-.203-.487h-.07zM.168 3.684A2.917 2.917 0 013.085.768h5.833a2.917 2.917 0 012.917 2.916v12.63a2.917 2.917 0 01-2.917 2.917H3.085a2.917 2.917 0 01-2.917-2.917V3.684z"/></svg><svg viewBox="0 0 20 16" id="icon-ironing" xmlns="http://www.w3.org/2000/svg"><path d="M19.997 13.362L18.474 1.946A1.672 1.672 0 0016.822.5H7.083a.416.416 0 100 .833h9.739c.416 0 .771.311.826.723l.57 4.277h-3.174l2.292-1.752a.417.417 0 10-.506-.662l-3.157 2.414h-6.59c-.24 0-.476.013-.71.036L3.17 3.92a.417.417 0 00-.506.662l2.61 1.995C2.243 7.38 0 10.137 0 13.416c0 .23.186.417.417.417h3.449l-1.202.92a.417.417 0 10.506.661l2.067-1.58h9.526l2.067 1.58a.415.415 0 00.584-.078.417.417 0 00-.078-.584l-1.202-.919h3.45a.415.415 0 00.413-.471zm-7.414-6.195L10 9.142 7.416 7.167h5.167zM4.955 13H.847c.194-2.939 2.431-5.322 5.3-5.756l3.167 2.423L4.955 13zm1.372 0L10 10.19 13.673 13H6.327zm8.717 0l-4.359-3.333 3.27-2.5h4.375L19.107 13h-4.063z"/></svg><svg viewBox="0 0 14 14" id="icon-linkedin" xmlns="http://www.w3.org/2000/svg"><path d="M13.664 13.667h.003v-4.89c0-2.392-.515-4.235-3.311-4.235-1.345 0-2.247.738-2.615 1.437H7.7V4.765H5.05v8.902h2.76V9.259c0-1.16.22-2.283 1.657-2.283 1.416 0 1.438 1.325 1.438 2.357v4.334h2.758zM.554 4.766h2.764v8.901H.554V4.766zM1.935.334c-.884 0-1.601.717-1.601 1.601s.717 1.616 1.601 1.616 1.601-.732 1.601-1.616c0-.884-.718-1.601-1.6-1.601z"/></svg><svg viewBox="0 0 16 18" id="icon-marker" xmlns="http://www.w3.org/2000/svg"><path fill-rule="evenodd" clip-rule="evenodd" d="M8.001 5.458a1.667 1.667 0 100 3.333 1.667 1.667 0 000-3.333zM4.668 7.124a3.333 3.333 0 116.667 0 3.333 3.333 0 01-6.667 0z"/><path fill-rule="evenodd" clip-rule="evenodd" d="M8.001 1.708c-3.016 0-5.416 2.363-5.416 5.224 0 2.332 1.401 4.688 2.934 6.54A23.268 23.268 0 008 16.033a23.267 23.267 0 002.483-2.56c1.532-1.852 2.934-4.208 2.934-6.54 0-2.86-2.4-5.224-5.417-5.224zm0 15.416l-.516.655-.002-.002-.005-.004-.016-.013a13.248 13.248 0 01-.268-.222 24.936 24.936 0 01-2.96-3.003C2.641 12.609.918 9.868.918 6.932c0-3.83 3.196-6.891 7.083-6.891 3.888 0 7.084 3.06 7.084 6.891 0 2.936-1.724 5.677-3.317 7.603a24.93 24.93 0 01-2.96 3.003 14.947 14.947 0 01-.268.222l-.016.013-.005.004-.001.001s-.001.001-.517-.654zm0 0l.516.655a.834.834 0 01-1.032 0l.516-.655z"/></svg><svg viewBox="0 0 18 15" id="icon-message" xmlns="http://www.w3.org/2000/svg"><path fill-rule="evenodd" clip-rule="evenodd" d="M17.96 12V2.835a2.5 2.5 0 00-2.5-2.5H2.543a2.5 2.5 0 00-2.5 2.5v9.167a2.5 2.5 0 002.5 2.5H15.46a2.5 2.5 0 002.5-2.5zm-1.667-7.283V12c0 .46-.373.833-.833.833H2.543A.833.833 0 011.71 12V4.717l5.886 4.002a2.5 2.5 0 002.811 0l5.886-4.002zm-.01-2.01a.834.834 0 00-.823-.706H2.543a.834.834 0 00-.824.707L8.533 7.34a.833.833 0 00.937 0l6.813-4.633z"/></svg><svg viewBox="0 0 18 18" id="icon-messenger" xmlns="http://www.w3.org/2000/svg"><path d="M9.001.666C4.4.666.668 4.12.668 8.382c0 2.428 1.211 4.593 3.105 6.008v2.943l2.838-1.558c.757.21 1.559.323 2.39.323 4.602 0 8.334-3.454 8.334-7.715C17.335 4.12 13.603.666 9 .666zm.828 10.39L7.708 8.794l-4.141 2.264L8.122 6.22l2.174 2.264 4.089-2.264-4.556 4.836z"/></svg><svg viewBox="0 0 12 16" id="icon-pinterest" xmlns="http://www.w3.org/2000/svg"><path d="M6.2.666C2.153.666 0 3.243 0 6.051c0 1.303.733 2.927 1.907 3.443.334.15.29-.033.578-1.127a.258.258 0 00-.063-.255c-1.677-1.927-.327-5.888 3.54-5.888 5.595 0 4.55 7.689.973 7.689-.922 0-1.609-.719-1.391-1.608.263-1.06.779-2.198.779-2.96 0-1.925-2.887-1.64-2.887.91 0 .787.281 1.32.281 1.32s-.929 3.724-1.1 4.42c-.293 1.179.039 3.086.067 3.25.018.09.12.12.178.045.091-.12 1.214-1.71 1.528-2.859l.584-2.117c.31.555 1.202 1.02 2.153 1.02C9.956 11.333 12 8.863 12 5.8 11.99 2.864 9.459.666 6.2.666z"/></svg><svg viewBox="0 0 30 30" id="icon-play" xmlns="http://www.w3.org/2000/svg"><path fill-rule="evenodd" clip-rule="evenodd" d="M20.422 12.881a2.667 2.667 0 010 4.237l-6.106 4.668c-1.755 1.34-4.286.09-4.286-2.119v-9.335c0-2.208 2.531-3.46 4.286-2.118l6.106 4.667zM18.803 15l-6.107-4.668v9.335L18.803 15z"/><path fill-rule="evenodd" clip-rule="evenodd" d="M14.999 3c-6.628 0-12 5.372-12 12 0 6.627 5.372 12 12 12 6.627 0 12-5.373 12-12 0-6.628-5.373-12-12-12zM.332 15C.332 6.9 6.899.333 14.999.333S29.665 6.899 29.665 15c0 8.1-6.566 14.666-14.666 14.666C6.899 29.666.332 23.1.332 15z"/></svg><svg viewBox="0 0 12 11" id="icon-rate" xmlns="http://www.w3.org/2000/svg"><path fill-rule="evenodd" clip-rule="evenodd" d="M5.085.6c.347-.8 1.483-.8 1.83 0l1.051 2.424 2.63.25c.869.083 1.22 1.164.565 1.742l-1.98 1.748.575 2.578c.19.852-.73 1.52-1.482 1.076L6 9.075l-2.274 1.343c-.752.444-1.671-.224-1.482-1.076l.575-2.578-1.98-1.748c-.655-.578-.304-1.659.565-1.741l2.63-.25L5.084.6zM7.05 3.422L6 .998 4.95 3.42a.998.998 0 01-.822.596l-2.629.25 1.98 1.75c.272.24.393.61.314.964l-.575 2.578 2.275-1.343a.998.998 0 011.014 0L8.782 9.56l-.575-2.578a.998.998 0 01.314-.965l1.98-1.748-2.63-.25a.998.998 0 01-.82-.597z"/></svg><svg viewBox="0 0 16 14" id="icon-reply" xmlns="http://www.w3.org/2000/svg"><path d="M.665 6.83L6.761.166v3.975h1.295c4.019 0 7.276 3.247 7.276 7.252V13.5l-.576-.628a10.344 10.344 0 00-7.629-3.355h-.366v3.974L.665 6.83z"/></svg><svg viewBox="0 0 16 16" id="icon-search" xmlns="http://www.w3.org/2000/svg"><path fill-rule="evenodd" clip-rule="evenodd" d="M7.25 2.166a5.083 5.083 0 100 10.167 5.083 5.083 0 000-10.167zM.835 7.25a6.417 6.417 0 1111.399 4.044l2.739 2.734a.667.667 0 11-.942.944l-2.74-2.736A6.417 6.417 0 01.834 7.25z"/></svg><svg viewBox="0 0 48 48" id="icon-shield" xmlns="http://www.w3.org/2000/svg"><g clip-path="url(#bfclip0_9500_4621)"><path d="M23.99 27.281c.519 0 .94-.42.94-.937a.939.939 0 00-1.88 0 .94.94 0 00.94.937z"/><path d="M23.453 47.732a.939.939 0 001.092 0c9.571-6.823 19.18-9.817 19.18-23.856V6.496a.938.938 0 00-.86-.934l-2.442-.204c-5.598-.465-11.105-2.301-15.926-5.31a.941.941 0 00-.995 0c-4.822 3.01-10.33 4.846-15.927 5.311l-2.441.204a.938.938 0 00-.862.934v17.38c0 14.435 10.96 17.995 19.18 23.856zM6.153 7.358l1.58-.131C13.434 6.752 19.045 4.929 24 1.944c4.953 2.985 10.564 4.808 16.267 5.283l1.58.131v16.518c0 12.66-8.452 15.375-17.849 21.946-8.247-5.714-17.846-8.957-17.846-21.946V7.358z"/><path d="M23.453 40.917a.934.934 0 001.095-.024c8.503-5.875 13.542-7.808 13.542-17.016V11.581a.938.938 0 00-.8-.927 41.446 41.446 0 01-12.86-4.15.957.957 0 00-.902.02 41.418 41.418 0 01-12.818 4.13.938.938 0 00-.8.927v12.296c0 9.295 5.52 11.576 13.543 17.04zM11.789 12.38A43.273 43.273 0 0023.05 8.848v13.746a.938.938 0 001.879 0V8.84a43.305 43.305 0 0011.282 3.54v11.497c0 7.621-3.577 9.283-11.282 14.483v-8.266a.938.938 0 00-1.879 0v8.293c-7.198-4.782-11.262-6.826-11.262-14.51V12.38z"/></g><defs><clipPath id="bfclip0_9500_4621"><path d="M0 0h48v48H0z"/></clipPath></defs></svg><svg viewBox="0 0 48 48" id="icon-shipping" xmlns="http://www.w3.org/2000/svg"><path d="M40.5 34.313a1.874 1.874 0 10-.001 3.748 1.874 1.874 0 00.001-3.748zm-.937-7.5a.938.938 0 100 1.875.938.938 0 000-1.875zm-27.75 7.5a1.874 1.874 0 10-.002 3.748 1.874 1.874 0 00.002-3.748z"/><path d="M44.06 23.123l-1.617-6.466a2.79 2.79 0 00.87-2.032 2.816 2.816 0 00-2.813-2.813H33V9a2.816 2.816 0 00-2.813-2.813H2.813A2.816 2.816 0 000 9v24.375a2.816 2.816 0 002.813 2.813h3.374a5.631 5.631 0 005.625 5.624 5.631 5.631 0 005.626-5.624h17.437a5.631 5.631 0 005.625 5.624 5.631 5.631 0 005.625-5.624c0-.054-.003-.107-.004-.16A2.817 2.817 0 0048 33.375V27.75c0-2.33-1.71-4.269-3.94-4.627zm-3.355-5.686l1.407 5.625h-7.786l2.15-2.15a.937.937 0 10-1.326-1.325L33 21.737v-4.3h7.705zm.733-2.812c0 .518-.42.938-.938.938H33v-1.876h7.5c.517 0 .938.42.938.938zM11.811 39.938a3.754 3.754 0 01-3.75-3.75 3.756 3.756 0 013.75-3.75 3.756 3.756 0 013.75 3.75 3.754 3.754 0 01-3.75 3.75zm5.304-5.626a5.645 5.645 0 00-5.303-3.75 5.644 5.644 0 00-5.304 3.75H2.812a.938.938 0 01-.937-.937V9c0-.517.42-.938.938-.938h27.375c.517 0 .937.42.937.938v25.313h-14.01zM40.5 39.938a3.754 3.754 0 01-3.75-3.75 3.756 3.756 0 013.75-3.75 3.756 3.756 0 013.75 3.75 3.754 3.754 0 01-3.75 3.75zm5.236-5.805a5.646 5.646 0 00-5.236-3.57 5.644 5.644 0 00-5.303 3.75H33v-9.376h10.313c1.221 0 2.264.784 2.65 1.875h-2.65a.937.937 0 100 1.875h2.812v4.688a.937.937 0 01-.389.758z"/><path d="M16.5 11.813c-4.652 0-8.438 3.785-8.438 8.437 0 4.652 3.786 8.438 8.438 8.438 4.652 0 8.438-3.786 8.438-8.438 0-4.652-3.786-8.438-8.438-8.438zm0 15a6.57 6.57 0 01-6.563-6.563 6.57 6.57 0 016.563-6.563 6.57 6.57 0 016.563 6.563 6.57 6.57 0 01-6.563 6.563z"/><path d="M20.25 19.313h-2.813V16.5a.937.937 0 10-1.875 0v3.75c0 .518.42.938.938.938h3.75a.937.937 0 100-1.875z"/></svg><svg viewBox="0 0 14 13" id="icon-star" xmlns="http://www.w3.org/2000/svg"><path fill-rule="evenodd" clip-rule="evenodd" d="M5.933 1.284c.405-.935 1.73-.935 2.136 0L9.295 4.11l3.067.292c1.014.097 1.424 1.358.66 2.032l-2.31 2.04.67 3.007c.222.994-.85 1.774-1.728 1.256L7.001 11.17l-2.654 1.567c-.877.518-1.95-.262-1.728-1.256l.67-3.008-2.31-2.04c-.763-.673-.354-1.934.66-2.03l3.068-.293 1.226-2.827z"/></svg><svg viewBox="0 0 48 48" id="icon-support" xmlns="http://www.w3.org/2000/svg"><path d="M28.691 22.5a.938.938 0 100-1.876.938.938 0 000 1.876zm-9.375 0a.938.938 0 100-1.876.938.938 0 000 1.876z"/><path d="M3.375 45.005v2.057c0 .518.42.938.938.938h39.374c.518 0 .938-.42.938-.938v-2.06c0-3.727-2.094-7.173-5.97-8.588a6.578 6.578 0 002.252-4.954.938.938 0 00-.938-.937 4.73 4.73 0 01-4.613-3.71h2.71A2.815 2.815 0 0040.875 24v-4.313A2.817 2.817 0 0039 17.037V15c0-8.27-6.728-15-14.997-15C15.714 0 9 6.708 9 15v2.037a2.819 2.819 0 00-1.875 2.65V24a2.817 2.817 0 002.815 2.813h2.704a4.726 4.726 0 01-4.609 3.71.938.938 0 00-.937.937c0 1.941.854 3.735 2.258 4.96-3.861 1.415-5.981 4.896-5.981 8.585zM38.953 32.32a4.698 4.698 0 01-2.886 3.506l-5.68-.738-.606-2.371a11.214 11.214 0 004.127-4.311 6.628 6.628 0 005.045 3.914zm-7.436-15.445c-2.59 0-4.697-2.133-4.697-4.756a.937.937 0 10-1.875 0c0 2.623-2.107 4.756-4.698 4.756h-5.62c0-5.17 4.207-9.375 9.376-9.375a9.37 9.37 0 019.375 9.375h-1.861zM14.625 18.75h5.622c2.39 0 4.485-1.292 5.635-3.22 1.151 1.928 3.246 3.22 5.635 3.22h1.858v4.313a9.341 9.341 0 01-5.125 8.359 9.27 9.27 0 01-4.247 1.015 9.279 9.279 0 01-4.235-1.007 9.374 9.374 0 01-2.396-1.739 9.31 9.31 0 01-2.747-6.628V18.75zm5.336 14.815c1.284.495 2.639.748 4.042.748 1.409 0 2.769-.255 4.058-.756l.595 2.328a4.67 4.67 0 01-4.644 4.053 4.67 4.67 0 01-4.644-4.052l.593-2.321zM39 24c0 .517-.42.938-.935.938H35.25V18.75h2.815c.516 0 .935.42.935.938V24zM24.003 1.875c7.235 0 13.122 5.888 13.122 13.125v1.875h-1.872c0-6.216-5.03-11.25-11.25-11.25-6.203 0-11.25 5.047-11.25 11.25h-1.878V15c0-7.252 5.872-13.125 13.128-13.125zM9 24v-4.313a.94.94 0 01.94-.937h2.81v6.188H9.94A.94.94 0 019 24zm5.093 4.403a11.288 11.288 0 004.147 4.322l-.604 2.364-5.695.739a4.702 4.702 0 01-2.889-3.508 6.624 6.624 0 005.041-3.917zm-2.251 9.328l.103-.014h.003l5.73-.743a6.54 6.54 0 006.334 4.839 6.539 6.539 0 006.333-4.84l5.836.758c4.11.534 6.569 3.614 6.569 7.272v1.122H5.25v-1.12c0-3.59 2.457-6.737 6.592-7.274z"/><path d="M21.497 28.944c.787.37 1.63.56 2.506.56.855 0 1.682-.181 2.458-.537a.937.937 0 10-.783-1.704 3.99 3.99 0 01-1.675.365 3.972 3.972 0 01-1.707-.38.937.937 0 10-.799 1.696zm10.944 14.744h3.75a.937.937 0 100-1.876h-3.75a.937.937 0 100 1.876zm7.497-1.875a.938.938 0 11-.001 1.875.938.938 0 010-1.876z"/></svg><svg viewBox="0 0 14 12" id="icon-twitter" xmlns="http://www.w3.org/2000/svg"><path d="M14 1.849a5.935 5.935 0 01-1.65.433 2.786 2.786 0 001.263-1.52 5.948 5.948 0 01-1.825.667A2.924 2.924 0 009.692.561C8.106.56 6.82 1.79 6.82 3.31c0 .215.026.425.075.626-2.387-.114-4.503-1.21-5.92-2.873a2.641 2.641 0 00-.388 1.382c0 .954.507 1.796 1.277 2.289a2.97 2.97 0 01-1.3-.345v.034c0 1.332.99 2.444 2.303 2.697a3.03 3.03 0 01-.757.096c-.185 0-.365-.018-.54-.051.365 1.093 1.425 1.888 2.682 1.91A5.927 5.927 0 01.685 10.25 6.37 6.37 0 010 10.212a8.382 8.382 0 004.402 1.237c5.283 0 8.171-4.19 8.171-7.823l-.01-.356A5.608 5.608 0 0014 1.849z"/></svg><svg viewBox="0 0 14 15" id="icon-user" xmlns="http://www.w3.org/2000/svg"><path fill-rule="evenodd" clip-rule="evenodd" d="M7 1.666a2.333 2.333 0 100 4.667 2.333 2.333 0 000-4.667zM3.335 4a3.667 3.667 0 117.333 0 3.667 3.667 0 01-7.333 0zM3.07 9.666c-.462 0-.824.225-.97.549-.203.447-.387.98-.43 1.486-.02.225.074.392.204.473.686.426 2.276 1.159 5.127 1.159 2.85 0 4.44-.733 5.126-1.16.13-.08.224-.247.204-.473-.043-.505-.227-1.038-.43-1.485-.146-.324-.508-.549-.97-.549H3.07zM.885 9.664c.406-.894 1.31-1.331 2.185-1.331h7.861c.874 0 1.78.437 2.185 1.331.232.513.482 1.203.544 1.922.056.655-.216 1.339-.83 1.72-.902.56-2.736 1.36-5.83 1.36-3.093 0-4.927-.8-5.83-1.36-.613-.381-.885-1.065-.829-1.72.062-.719.312-1.409.544-1.922z"/></svg><svg viewBox="0 0 16 12" id="icon-youtube" xmlns="http://www.w3.org/2000/svg"><path fill-rule="evenodd" clip-rule="evenodd" d="M14.26.743a2.004 2.004 0 011.41 1.41c.343 1.252.33 3.862.33 3.862s0 2.596-.33 3.848a2.005 2.005 0 01-1.41 1.41c-1.252.33-6.26.33-6.26.33s-4.995 0-6.26-.343A2.005 2.005 0 01.33 9.85C0 8.611 0 6.002 0 6.002s0-2.597.33-3.849A2.046 2.046 0 011.74.73C2.992.4 8 .4 8 .4s5.008 0 6.26.343zm-3.69 5.259L6.405 8.4V3.603l4.165 2.399z"/></svg></svg>