<svg width="16" height="16" fill="none" xmlns="http://www.w3.org/2000/svg"><path d="M8.001 15.333c4.044 0 7.334-3.29 7.334-7.334a7.27 7.27 0 00-.29-2.044.61.61 0 10-1.174.343 6.118 6.118 0 01-5.87 7.812A6.118 6.118 0 011.891 8 6.118 6.118 0 018 1.887a6.07 6.07 0 013.408 1.036.611.611 0 00.683-1.014A7.288 7.288 0 008.002.666C3.957.666.667 3.956.667 7.999c0 4.044 3.29 7.334 7.333 7.334z" fill="#17696A"/><path d="M14.863 1.528L8.001 8.39 5.806 6.195a.667.667 0 00-.943.942L7.53 9.804a.664.664 0 00.943 0l7.333-7.333a.667.667 0 00-.943-.943z" fill="#17696A"/></svg>