<svg width="48" height="48" fill="none" xmlns="http://www.w3.org/2000/svg"><g clip-path="url(#clip0_9500_4621)" fill="#17696A"><path d="M23.99 27.281c.519 0 .94-.42.94-.937a.939.939 0 00-1.88 0 .94.94 0 00.94.937z"/><path d="M23.453 47.732a.939.939 0 001.092 0c9.571-6.823 19.18-9.817 19.18-23.856V6.496a.938.938 0 00-.86-.934l-2.442-.204c-5.598-.465-11.105-2.301-15.926-5.31a.941.941 0 00-.995 0c-4.822 3.01-10.33 4.846-15.927 5.311l-2.441.204a.938.938 0 00-.862.934v17.38c0 14.435 10.96 17.995 19.18 23.856zM6.153 7.358l1.58-.131C13.434 6.752 19.045 4.929 24 1.944c4.953 2.985 10.564 4.808 16.267 5.283l1.58.131v16.518c0 12.66-8.452 15.375-17.849 21.946-8.247-5.714-17.846-8.957-17.846-21.946V7.358z"/><path d="M23.453 40.917a.934.934 0 001.095-.024c8.503-5.875 13.542-7.808 13.542-17.016V11.581a.938.938 0 00-.8-.927 41.446 41.446 0 01-12.86-4.15.957.957 0 00-.902.02 41.418 41.418 0 01-12.818 4.13.938.938 0 00-.8.927v12.296c0 9.295 5.52 11.576 13.543 17.04zM11.789 12.38A43.273 43.273 0 0023.05 8.848v13.746a.938.938 0 001.879 0V8.84a43.305 43.305 0 0011.282 3.54v11.497c0 7.621-3.577 9.283-11.282 14.483v-8.266a.938.938 0 00-1.879 0v8.293c-7.198-4.782-11.262-6.826-11.262-14.51V12.38z"/></g><defs><clipPath id="clip0_9500_4621"><path fill="#fff" d="M0 0h48v48H0z"/></clipPath></defs></svg>