<svg width="48" height="48" fill="none" xmlns="http://www.w3.org/2000/svg"><path d="M24 33.375a.938.938 0 100 1.876.938.938 0 000-1.876z" fill="#17696A"/><path d="M45.188 18.375h-3.376V4.312A2.816 2.816 0 0039 1.5H2.812A2.816 2.816 0 000 4.313v22.5a2.816 2.816 0 002.813 2.812h3.374v14.063A2.816 2.816 0 009 46.5h36.188A2.816 2.816 0 0048 43.687v-22.5a2.816 2.816 0 00-2.813-2.812zM1.874 9h38.063v3.75H1.874V9zm.938-5.625H39c.517 0 .938.42.938.938v2.812H1.874V4.312c0-.517.42-.937.938-.937zm0 24.375a.938.938 0 01-.938-.938V14.626h38.063v3.75H9a2.816 2.816 0 00-2.813 2.813v6.562H2.813zm43.312 15.938c0 .517-.42.937-.938.937H9a.938.938 0 01-.938-.938v-22.5c0-.517.42-.937.938-.937h36.188c.517 0 .937.42.937.938v22.5z" fill="#17696A"/><path d="M37.125 24a4.69 4.69 0 00-2.813.94A4.685 4.685 0 0031.5 24a4.693 4.693 0 00-4.688 4.688 4.693 4.693 0 004.688 4.687 4.685 4.685 0 002.812-.94 4.69 4.69 0 002.813.94 4.693 4.693 0 004.688-4.688A4.693 4.693 0 0037.124 24zm-8.438 4.688a2.812 2.812 0 014.92-1.86h.002a2.804 2.804 0 010 3.72 2.812 2.812 0 01-4.922-1.86zm8.438 2.812a2.816 2.816 0 01-1.563-.475 4.68 4.68 0 000-4.675 2.816 2.816 0 011.563-.475 2.816 2.816 0 012.813 2.813 2.816 2.816 0 01-2.813 2.812zM16.5 39h-3.75a.937.937 0 100 1.875h3.75a.937.937 0 100-1.875zm7.5 0h-3.75a.937.937 0 100 1.875H24A.937.937 0 1024 39zm7.5 0h-3.75a.937.937 0 100 1.875h3.75a.937.937 0 100-1.875zm7.5 0h-3.75a.937.937 0 100 1.875H39A.937.937 0 1039 39zm-26.25-3.75h7.5a.937.937 0 100-1.875h-7.5a.937.937 0 100 1.875z" fill="#17696A"/></svg>