<svg width="20" height="16" fill="none" xmlns="http://www.w3.org/2000/svg"><path d="M19.997 13.362L18.474 1.946A1.672 1.672 0 0016.822.5H7.083a.416.416 0 100 .833h9.739c.416 0 .771.311.826.723l.57 4.277h-3.174l2.292-1.752a.417.417 0 10-.506-.662l-3.157 2.414h-6.59c-.24 0-.476.013-.71.036L3.17 3.92a.417.417 0 00-.506.662l2.61 1.995C2.243 7.38 0 10.137 0 13.416c0 .23.186.417.417.417h3.449l-1.202.92a.417.417 0 10.506.661l2.067-1.58h9.526l2.067 1.58a.415.415 0 00.584-.078.417.417 0 00-.078-.584l-1.202-.919h3.45a.415.415 0 00.413-.471zm-7.414-6.195L10 9.142 7.416 7.167h5.167zM4.955 13H.847c.194-2.939 2.431-5.322 5.3-5.756l3.167 2.423L4.955 13zm1.372 0L10 10.19 13.673 13H6.327zm8.717 0l-4.359-3.333 3.27-2.5h4.375L19.107 13h-4.063z" fill="#787A80"/></svg>