<svg width="15" height="13" fill="none" xmlns="http://www.w3.org/2000/svg"><path d="M1.76 3.679c1.803-1.504 3.878-2.346 6.073-2.346 2.194 0 4.27.842 6.073 2.346a.667.667 0 00.854-1.024C12.755.982 10.386 0 7.833 0S2.91.982.906 2.655a.667.667 0 10.854 1.024z" fill="#424551"/><path fill-rule="evenodd" clip-rule="evenodd" d="M2.733 4.46c1.2-1.013 2.91-1.96 4.85-1.96 1.94 0 3.65.947 4.85 1.96.604.51 1.1 1.054 1.45 1.54.174.242.32.48.425.7.096.203.191.459.191.717 0 .257-.095.513-.191.716-.105.22-.25.458-.426.7a8.856 8.856 0 01-1.45 1.541c-1.199 1.012-2.909 1.96-4.85 1.96-1.94 0-3.65-.948-4.849-1.96a8.852 8.852 0 01-1.45-1.54 4.63 4.63 0 01-.425-.701C.76 7.93.666 7.674.666 7.417c0-.258.095-.514.192-.716.105-.221.25-.459.425-.701.35-.486.846-1.03 1.45-1.54zm-.729 2.957a.995.995 0 00.058.143c.061.13.161.298.303.494.282.392.702.857 1.228 1.301C4.656 10.253 6.071 11 7.583 11c1.511 0 2.926-.747 3.989-1.645.527-.444.946-.91 1.229-1.3.141-.197.241-.365.303-.495.035-.074.05-.12.057-.143a1.015 1.015 0 00-.057-.144 3.322 3.322 0 00-.303-.494 7.524 7.524 0 00-1.229-1.3 8.276 8.276 0 00-.715-.542 3.417 3.417 0 11-6.548 0 8.23 8.23 0 00-.716.541 7.57 7.57 0 00-1.228 1.301 3.323 3.323 0 00-.303.494 1.01 1.01 0 00-.058.144zm3.495-1.5a2.083 2.083 0 114.167 0 2.083 2.083 0 01-4.167 0z" fill="#424551"/></svg>