<svg width="30" height="30" fill="none" xmlns="http://www.w3.org/2000/svg"><path fill-rule="evenodd" clip-rule="evenodd" d="M20.422 12.881a2.667 2.667 0 010 4.237l-6.106 4.668c-1.755 1.34-4.286.09-4.286-2.119v-9.335c0-2.208 2.531-3.46 4.286-2.118l6.106 4.667zM18.803 15l-6.107-4.668v9.335L18.803 15z" fill="#fff"/><path fill-rule="evenodd" clip-rule="evenodd" d="M14.999 3c-6.628 0-12 5.372-12 12 0 6.627 5.372 12 12 12 6.627 0 12-5.373 12-12 0-6.628-5.373-12-12-12zM.332 15C.332 6.9 6.899.333 14.999.333S29.665 6.899 29.665 15c0 8.1-6.566 14.666-14.666 14.666C6.899 29.666.332 23.1.332 15z" fill="#fff"/></svg>