<svg width="14" height="14" fill="none" xmlns="http://www.w3.org/2000/svg"><path d="M7.14 6.003h6.584c.072.405.109.793.109 1.162 0 1.314-.276 2.487-.827 3.519a5.966 5.966 0 01-2.356 2.42c-1.02.58-2.19.872-3.51.872-.95 0-1.855-.184-2.715-.55A6.972 6.972 0 012.2 11.941 6.973 6.973 0 01.715 9.717 6.856 6.856 0 01.166 7c0-.95.183-1.855.55-2.715A6.974 6.974 0 012.2 2.061 6.974 6.974 0 014.425.577 6.856 6.856 0 017.14.027c1.816 0 3.375.609 4.677 1.826L9.919 3.678c-.745-.72-1.671-1.08-2.779-1.08-.78 0-1.503.196-2.166.59A4.35 4.35 0 003.4 4.79a4.365 4.365 0 00-.581 2.211c0 .8.193 1.537.58 2.212a4.35 4.35 0 001.576 1.602c.663.394 1.385.59 2.166.59a4.63 4.63 0 001.453-.217c.442-.146.805-.327 1.09-.545.284-.218.533-.466.744-.745a3.47 3.47 0 00.468-.79c.1-.248.168-.484.204-.708H7.14V6.003z" fill="#17696A"/></svg>