<svg width="12" height="20" fill="none" xmlns="http://www.w3.org/2000/svg"><path fill-rule="evenodd" clip-rule="evenodd" d="M3.085 2.434c-.69 0-1.25.56-1.25 1.25v12.63c0 .69.56 1.25 1.25 1.25h5.833c.69 0 1.25-.56 1.25-1.25V3.684c0-.69-.56-1.25-1.25-1.25h-.07l-.202.487a.833.833 0 01-.77.513h-3.75a.833.833 0 01-.769-.513l-.203-.487h-.07zM.168 3.684A2.917 2.917 0 013.085.768h5.833a2.917 2.917 0 012.917 2.916v12.63a2.917 2.917 0 01-2.917 2.917H3.085a2.917 2.917 0 01-2.917-2.917V3.684z" fill="#17696A"/></svg>