<svg width="15" height="16" fill="none" xmlns="http://www.w3.org/2000/svg"><path fill-rule="evenodd" clip-rule="evenodd" d="M3.833 6.333c.368 0 .666.298.666.667v7.5a.667.667 0 01-1.333 0V7c0-.369.298-.667.667-.667zm0-5.5c.368 0 .666.298.666.667v2a.667.667 0 01-1.333 0v-2c0-.369.298-.667.667-.667z" fill="#fff"/><path fill-rule="evenodd" clip-rule="evenodd" d="M.166 4.833a2 2 0 012-2h3.333a2 2 0 012 2v.833a2 2 0 01-2 2H2.166a2 2 0 01-2-2v-.833zm2-.667a.667.667 0 00-.667.667v.833c0 .369.299.667.667.667h3.333a.667.667 0 00.667-.667v-.833a.667.667 0 00-.667-.667H2.166zm9 7.667c.368 0 .667.299.667.667v2a.667.667 0 01-1.334 0v-2c0-.368.299-.667.667-.667zm0-11c.368 0 .667.298.667.667V9a.667.667 0 01-1.334 0V1.5c0-.369.299-.667.667-.667z" fill="#fff"/><path fill-rule="evenodd" clip-rule="evenodd" d="M7.5 10.333a2 2 0 012-2h3.333a2 2 0 012 2v.833a2 2 0 01-2 2H9.499a2 2 0 01-2-2v-.833zm2-.667a.667.667 0 00-.667.667v.833c0 .368.298.667.666.667h3.334a.667.667 0 00.666-.667v-.833a.667.667 0 00-.666-.667H9.499z" fill="#fff"/></svg>