<svg width="20" height="18" fill="none" xmlns="http://www.w3.org/2000/svg"><path d="M19.665 3.593c-.228-.051-.445.107-.49.347l-.54 2.863c-.26-.123-.457-.333-.688-.585-.313-.34-.69-.744-1.3-.9a3.846 3.846 0 00-1.136-2.554l-1.39-1.373a3.962 3.962 0 00-2.97-1.136L6.168.489a.417.417 0 00-.389.334 1.871 1.871 0 00.31 1.465 1.93 1.93 0 001.301.792l1.044.147a.45.45 0 01.375.31.437.437 0 01-.112.46L6.09 6.574a4.672 4.672 0 01-.36-.357c-.396-.43-.888-.968-1.837-.968-.948 0-1.44.537-1.836.968-.231.252-.43.463-.692.586L.825 3.94C.78 3.7.563 3.543.335 3.593a.443.443 0 00-.327.52l2.3 12.213c.154.825.841 1.424 1.633 1.424H16.06c.791 0 1.479-.599 1.634-1.424l2.299-12.212a.442.442 0 00-.327-.521zm-10.382.996a1.287 1.287 0 00-.733-2.187l-1.043-.147a1.078 1.078 0 01-.927-.95l4.61-.218a3.14 3.14 0 012.346.897l1.39 1.373a3.02 3.02 0 01.883 1.915c-.752.1-1.18.564-1.53.946-.357.39-.64.699-1.22.699s-.862-.308-1.219-.699c-.395-.43-.887-.968-1.834-.968-.947 0-1.439.537-1.834.968-.357.39-.64.699-1.22.699-.008 0-.013-.003-.02-.003l2.351-2.325zm1.872 4.952a.416.416 0 00-.59-.003l-3.113 3.078a.47.47 0 01-.66 0 .446.446 0 01-.006-.632l3.12-3.085a.416.416 0 10-.586-.593l-3.114 3.08-.01.01-.612.605a.471.471 0 01-.66 0 .446.446 0 010-.64l3.114-3.078a.417.417 0 00.003-.59.408.408 0 00-.251-.115c.438-.193.739-.516.996-.796.358-.39.64-.699 1.22-.699s.862.308 1.22.699c.395.43.887.968 1.834.968.946 0 1.438-.537 1.833-.968.279-.304.516-.553.88-.65a3.034 3.034 0 01-.848 1.559l-4.982 4.925a.471.471 0 01-.66 0 .445.445 0 010-.639l1.869-1.847a.416.416 0 00.003-.59zM6.218 7.619a2.12 2.12 0 001.238.069l-.004.003-2.491 2.462a.47.47 0 01-.66 0 .445.445 0 010-.639L6.218 7.62zm10.658 8.534c-.078.412-.421.764-.817.764H3.94c-.396 0-.739-.352-.817-.764L1.52 7.629c.515-.177.854-.524 1.15-.847.358-.39.64-.699 1.223-.699.581 0 .864.309 1.223.699.114.124.238.256.377.383L3.715 8.922a1.275 1.275 0 00-.382.912c0 .345.136.669.382.912.125.123.269.216.422.278-.118.197-.18.422-.18.657-.001.345.135.669.381.912a1.307 1.307 0 001.583.193 1.299 1.299 0 001.201.798c.332 0 .663-.125.916-.375l.39-.386a1.307 1.307 0 002.101.386l4.982-4.926a3.852 3.852 0 001.09-2.096c.282.12.494.335.732.595.295.322.633.67 1.148.847l-1.605 8.524z" fill="#787A80"/></svg>