<svg width="20" height="20" fill="none" xmlns="http://www.w3.org/2000/svg"><path d="M19.167 18.578V1.422l.711-.712a.417.417 0 10-.59-.589l-.71.711H1.422L.71.123A.416.416 0 10.122.71l.711.712v17.155l-.71.71a.416.416 0 10.588.59l.712-.711h17.154l.712.71a.415.415 0 00.589 0 .416.416 0 000-.588l-.711-.712zM10 1.666h7.744L15.581 3.83A8.29 8.29 0 0010 1.667 8.29 8.29 0 004.419 3.83L2.256 1.667H10zM9.41 10l-4.99 4.992A7.46 7.46 0 012.5 10a7.46 7.46 0 011.919-4.992L9.41 10zM5.009 4.419A7.46 7.46 0 0110 2.5a7.46 7.46 0 014.992 1.919L10 9.41 5.008 4.419zM10 10.589l4.992 4.992A7.46 7.46 0 0110 17.5a7.46 7.46 0 01-4.992-1.919L10 10.59zm.59-.589l4.991-4.992A7.46 7.46 0 0117.5 10a7.46 7.46 0 01-1.919 4.992L10.59 10zm-8.923 0V2.256L3.83 4.419A8.29 8.29 0 001.667 10a8.29 8.29 0 002.163 5.581l-2.163 2.163V10zM10 18.333H2.256l2.163-2.163A8.29 8.29 0 0010 18.333a8.29 8.29 0 005.581-2.163l2.163 2.163H10zM18.333 10v7.744l-2.163-2.163A8.29 8.29 0 0018.333 10a8.29 8.29 0 00-2.163-5.581l2.163-2.163V10z" fill="#787A80"/></svg>