<svg width="14" height="12" fill="none" xmlns="http://www.w3.org/2000/svg"><path d="M14 1.849a5.935 5.935 0 01-1.65.433 2.786 2.786 0 001.263-1.52 5.948 5.948 0 01-1.825.667A2.924 2.924 0 009.692.561C8.106.56 6.82 1.79 6.82 3.31c0 .215.026.425.075.626-2.387-.114-4.503-1.21-5.92-2.873a2.641 2.641 0 00-.388 1.382c0 .954.507 1.796 1.277 2.289a2.97 2.97 0 01-1.3-.345v.034c0 1.332.99 2.444 2.303 2.697a3.03 3.03 0 01-.757.096c-.185 0-.365-.018-.54-.051.365 1.093 1.425 1.888 2.682 1.91A5.927 5.927 0 01.685 10.25 6.37 6.37 0 010 10.212a8.382 8.382 0 004.402 1.237c5.283 0 8.171-4.19 8.171-7.823l-.01-.356A5.608 5.608 0 0014 1.849z" fill="#fff"/></svg>