<svg width="12" height="11" fill="none" xmlns="http://www.w3.org/2000/svg"><path fill-rule="evenodd" clip-rule="evenodd" d="M5.085.6c.347-.8 1.483-.8 1.83 0l1.051 2.424 2.63.25c.869.083 1.22 1.164.565 1.742l-1.98 1.748.575 2.578c.19.852-.73 1.52-1.482 1.076L6 9.075l-2.274 1.343c-.752.444-1.671-.224-1.482-1.076l.575-2.578-1.98-1.748c-.655-.578-.304-1.659.565-1.741l2.63-.25L5.084.6zM7.05 3.422L6 .998 4.95 3.42a.998.998 0 01-.822.596l-2.629.25 1.98 1.75c.272.24.393.61.314.964l-.575 2.578 2.275-1.343a.998.998 0 011.014 0L8.782 9.56l-.575-2.578a.998.998 0 01.314-.965l1.98-1.748-2.63-.25a.998.998 0 01-.82-.597z" fill="#787A80"/></svg>