<svg width="12" height="16" fill="none" xmlns="http://www.w3.org/2000/svg"><path d="M6.2.666C2.153.666 0 3.243 0 6.051c0 1.303.733 2.927 1.907 3.443.334.15.29-.033.578-1.127a.258.258 0 00-.063-.255c-1.677-1.927-.327-5.888 3.54-5.888 5.595 0 4.55 7.689.973 7.689-.922 0-1.609-.719-1.391-1.608.263-1.06.779-2.198.779-2.96 0-1.925-2.887-1.64-2.887.91 0 .787.281 1.32.281 1.32s-.929 3.724-1.1 4.42c-.293 1.179.039 3.086.067 3.25.018.09.12.12.178.045.091-.12 1.214-1.71 1.528-2.859l.584-2.117c.31.555 1.202 1.02 2.153 1.02C9.956 11.333 12 8.863 12 5.8 11.99 2.864 9.459.666 6.2.666z" fill="#fff"/></svg>